<svg xmlns="http://www.w3.org/2000/svg" xmlns:xlink="http://www.w3.org/1999/xlink" width="1200" height="500" viewBox="0 0 1200 500">
  <defs>
    <clipPath id="clip-Artboard_1">
      <rect width="1200" height="500"/>
    </clipPath>
  </defs>
  <g id="Artboard_1" data-name="Artboard – 1" clip-path="url(#clip-Artboard_1)">
    <g id="logo_animate" data-name="logo animate" transform="translate(276.988 -208.242)">
      <g id="Ellipse_59" data-name="Ellipse 59" transform="translate(477 505.172)" fill="none" stroke="#f0f0f0" stroke-width="3">
        <circle cx="84.156" cy="84.156" r="84.156" stroke="none"/>
        <circle cx="84.156" cy="84.156" r="82.656" fill="none"/>
      </g>
      <g id="Ellipse_61" data-name="Ellipse 61" transform="translate(501.854 530.026)" fill="none" stroke="#fff" stroke-width="1">
        <circle cx="59.302" cy="59.302" r="59.302" stroke="none"/>
        <circle cx="59.302" cy="59.302" r="58.802" fill="none"/>
      </g>
      <g id="Group_66" data-name="Group 66" transform="translate(561.333 248.411)">
        <path id="Path_1" data-name="Path 1" d="M15.291,1013.233l228.64-84.923,62.591,84.923Z" transform="translate(-15.291 -676.58)" fill="none" stroke="#f0f0f0" stroke-linecap="square" stroke-linejoin="round" stroke-width="2"/>
        <path id="Path_3" data-name="Path 3" d="M110.984,815.246,51.355,926.779l239.8,134.191Z" transform="translate(-0.12 -724.141)" fill="none" stroke="#f0f0f0" stroke-linecap="square" stroke-linejoin="round" stroke-width="2"/>
        <path id="Path_5" data-name="Path 5" d="M218.143,870.105,159.692,751.116,51.355,953.755Z" transform="translate(-0.12 -751.116)" fill="none" stroke="#f0f0f0" stroke-linecap="square" stroke-linejoin="round" stroke-width="2"/>
      </g>
      <g id="Group_104" data-name="Group 104" transform="translate(772.919 359.666)">
        <circle id="Ellipse_52" data-name="Ellipse 52" cx="7.699" cy="7.699" r="7.699" fill="#f0f0f0"/>
        <circle id="Ellipse_53" data-name="Ellipse 53" cx="3.726" cy="3.726" r="3.726" transform="translate(3.973 3.973)" fill="#fff"/>
      </g>
      <g id="Group_105" data-name="Group 105" transform="translate(547.048 570.711)">
        <path id="Path_75" data-name="Path 75" d="M14.323,0A14.323,14.323,0,1,1,0,14.323,14.323,14.323,0,0,1,14.323,0Z" transform="translate(0 0)" fill="#f0f0f0"/>
        <path id="Path_76" data-name="Path 76" d="M9.96,0A9.96,9.96,0,1,1,0,9.96,9.96,9.96,0,0,1,9.96,0Z" transform="translate(4.363 4.363)" fill="#fff"/>
        <path id="Path_77" data-name="Path 77" d="M5.309,0A5.309,5.309,0,1,1,0,5.309,5.309,5.309,0,0,1,5.309,0Z" transform="translate(9.014 9.014)" fill="#f0f0f0"/>
      </g>
      <g id="Group_106" data-name="Group 106" transform="translate(597.784 435.405)">
        <path id="Path_75-2" data-name="Path 75" d="M14.323,0A14.323,14.323,0,1,1,0,14.323,14.323,14.323,0,0,1,14.323,0Z" transform="translate(0 0)" fill="#f0f0f0"/>
        <g id="Ellipse_53-2" data-name="Ellipse 53" transform="translate(3.924 4.36)" fill="none" stroke="#fff" stroke-width="1">
          <circle cx="10.177" cy="10.177" r="10.177" stroke="none"/>
          <circle cx="10.177" cy="10.177" r="9.677" fill="none"/>
        </g>
        <g id="Ellipse_63" data-name="Ellipse 63" transform="translate(7.849 8.285)" fill="none" stroke="#fff" stroke-width="1">
          <circle cx="6.252" cy="6.252" r="6.252" stroke="none"/>
          <circle cx="6.252" cy="6.252" r="5.752" fill="none"/>
        </g>
      </g>
      <line id="Line_39" data-name="Line 39" x2="126.017" y2="71.947" transform="translate(602.363 459.605)" fill="none" stroke="#f0f0f0" stroke-width="3"/>
      <line id="Line_40" data-name="Line 40" x2="128.197" y2="71.511" transform="translate(618.496 438.675)" fill="none" stroke="#f0f0f0" stroke-width="3"/>
      <g id="Group_107" data-name="Group 107" transform="translate(721.428 505.268)">
        <path id="Path_75-3" data-name="Path 75" d="M14.8,0A14.8,14.8,0,1,1,0,14.8,14.8,14.8,0,0,1,14.8,0Z" transform="translate(0 0)" fill="#e2e2e2"/>
        <g id="Ellipse_53-3" data-name="Ellipse 53" transform="translate(4.283 4.283)" fill="none" stroke="#fff" stroke-width="1">
          <circle cx="10.513" cy="10.513" r="10.513" stroke="none"/>
          <circle cx="10.513" cy="10.513" r="10.013" fill="none"/>
        </g>
        <circle id="Ellipse_56" data-name="Ellipse 56" cx="7.461" cy="7.461" r="7.461" transform="translate(7.335 7.335)" fill="#fff"/>
      </g>
      <path id="Union_2" data-name="Union 2" d="M46.994,210.308a71.093,71.093,0,0,1-13.7-3.1,72,72,0,0,1-13.2-5.942h0L91.548,77.517a71.955,71.955,0,0,1,11.744,8.456,71.042,71.042,0,0,1,16.749,22.084,71.83,71.83,0,0,1,7.064,26.361q.179,2.533.178,5.077a70.96,70.96,0,0,1-3.641,22.422,72.136,72.136,0,0,1-14.4,24.939,71.035,71.035,0,0,1-22.083,16.749A71.832,71.832,0,0,1,60.8,210.671q-2.51.177-5.032.177A71.307,71.307,0,0,1,46.994,210.308ZM35.733,133.33h0l-.008,0a71.947,71.947,0,0,1-11.736-8.451A71.059,71.059,0,0,1,7.241,102.791a71.652,71.652,0,0,1-6.7-40.165,71.1,71.1,0,0,1,3.1-13.7,72.143,72.143,0,0,1,14.4-24.939A71.043,71.043,0,0,1,40.123,7.241,71.65,71.65,0,0,1,80.289.54a71.091,71.091,0,0,1,13.7,3.1,71.988,71.988,0,0,1,13.2,5.942L35.734,133.331Z" transform="matrix(0.839, 0.545, -0.545, 0.839, 786.209, 243.967)" fill="#f0f0f0"/>
      <g id="Group_103" data-name="Group 103" transform="translate(833.229 276.518)">
        <circle id="Ellipse_52-2" data-name="Ellipse 52" cx="10.329" cy="10.329" r="10.329" transform="translate(0)" fill="#e2e2e2"/>
        <g id="Ellipse_53-4" data-name="Ellipse 53" transform="translate(1.289 1.289)" fill="none" stroke="#fff" stroke-width="1">
          <circle cx="9.041" cy="9.041" r="9.041" stroke="none"/>
          <circle cx="9.041" cy="9.041" r="8.541" fill="none"/>
        </g>
        <circle id="Ellipse_62" data-name="Ellipse 62" cx="4.617" cy="4.617" r="4.617" transform="translate(5.712 5.712)" fill="#fff"/>
      </g>
      <g id="Group_112" data-name="Group 112" transform="translate(751.398 399.191)">
        <circle id="Ellipse_52-3" data-name="Ellipse 52" cx="19.851" cy="19.851" r="19.851" fill="#e2e2e2"/>
        <g id="Ellipse_53-5" data-name="Ellipse 53" transform="translate(2.477 2.477)" fill="none" stroke="#fff" stroke-width="1">
          <circle cx="17.374" cy="17.374" r="17.374" stroke="none"/>
          <circle cx="17.374" cy="17.374" r="16.874" fill="none"/>
        </g>
        <circle id="Ellipse_62-2" data-name="Ellipse 62" cx="8.873" cy="8.873" r="8.873" transform="translate(10.978 10.978)" fill="#fff"/>
      </g>
    </g>
  </g>
</svg>
