<svg xmlns="http://www.w3.org/2000/svg" xmlns:xlink="http://www.w3.org/1999/xlink" width="254" height="80" viewBox="0 0 254 80">
  <defs>
    <filter id="Path_71" x="-10.241" y="17.639" width="57.836" height="38.117" filterUnits="userSpaceOnUse">
      <feOffset dy="3" input="SourceAlpha"/>
      <feGaussianBlur stdDeviation="5" result="blur"/>
      <feFlood flood-opacity="0.412"/>
      <feComposite operator="in" in2="blur"/>
      <feComposite in="SourceGraphic"/>
    </filter>
    <filter id="Path_72" x="-5.344" y="2.287" width="52.92" height="53.486" filterUnits="userSpaceOnUse">
      <feOffset dy="3" input="SourceAlpha"/>
      <feGaussianBlur stdDeviation="5" result="blur-2"/>
      <feFlood flood-opacity="0.412"/>
      <feComposite operator="in" in2="blur-2"/>
      <feComposite in="SourceGraphic"/>
    </filter>
    <filter id="Path_73" x="-5.344" y="-6.421" width="45.942" height="49.368" filterUnits="userSpaceOnUse">
      <feOffset dy="3" input="SourceAlpha"/>
      <feGaussianBlur stdDeviation="5" result="blur-3"/>
      <feFlood flood-opacity="0.412"/>
      <feComposite operator="in" in2="blur-3"/>
      <feComposite in="SourceGraphic"/>
    </filter>
    <clipPath id="clip-Artboard_1">
      <rect width="254" height="80"/>
    </clipPath>
  </defs>
  <g id="Artboard_1" data-name="Artboard – 1" clip-path="url(#clip-Artboard_1)">
    <text id="_ite_" data-name=" ite
" transform="translate(4.925 38.049)" font-size="39" font-family="MajorMonoDisplay-Regular, Major Mono Display"><tspan x="0" y="0" xml:space="preserve"> ite</tspan><tspan x="0" y="45"></tspan></text>
    <g id="Group_142" data-name="Group 142" transform="translate(4.759 5.579)">
      <g transform="matrix(1, 0, 0, 1, -4.76, -5.58)" filter="url(#Path_71)">
        <path id="Path_71-2" data-name="Path 71" d="M15.291,936.427l21.853-8.117,5.983,8.117Z" transform="translate(-10.53 -898.67)" fill="#651fff"/>
      </g>
      <g transform="matrix(1, 0, 0, 1, -4.76, -5.58)" filter="url(#Path_72)">
        <path id="Path_72-2" data-name="Path 72" d="M57.055,815.246l-5.7,10.66,22.92,12.826Z" transform="translate(-41.7 -800.96)" fill="#651fff"/>
      </g>
      <g transform="matrix(1, 0, 0, 1, -4.76, -5.58)" filter="url(#Path_73)">
        <path id="Path_73-2" data-name="Path 73" d="M67.3,762.489,61.71,751.116,51.355,770.485Z" transform="translate(-41.7 -745.54)" fill="#651fff"/>
      </g>
    </g>
    <text id="optimiser" transform="translate(4.925 74.919)" font-size="37" font-family="MajorMonoDisplay-Regular, Major Mono Display"><tspan x="0" y="0">optimiser</tspan></text>
  </g>
</svg>
