<svg xmlns="http://www.w3.org/2000/svg" xmlns:xlink="http://www.w3.org/1999/xlink" width="56.966" height="86.092" viewBox="0 0 56.966 86.092">
  <defs>
    <filter id="Path_71" x="0" y="23.309" width="56.966" height="37.863" filterUnits="userSpaceOnUse">
      <feOffset dy="3" input="SourceAlpha"/>
      <feGaussianBlur stdDeviation="5" result="blur"/>
      <feFlood flood-opacity="0.412"/>
      <feComposite operator="in" in2="blur"/>
      <feComposite in="SourceGraphic"/>
    </filter>
    <filter id="Path_72" x="4.744" y="8.436" width="52.204" height="52.752" filterUnits="userSpaceOnUse">
      <feOffset dy="3" input="SourceAlpha"/>
      <feGaussianBlur stdDeviation="5" result="blur-2"/>
      <feFlood flood-opacity="0.412"/>
      <feComposite operator="in" in2="blur-2"/>
      <feComposite in="SourceGraphic"/>
    </filter>
    <filter id="Path_73" x="4.744" y="0" width="45.443" height="48.763" filterUnits="userSpaceOnUse">
      <feOffset dy="3" input="SourceAlpha"/>
      <feGaussianBlur stdDeviation="5" result="blur-3"/>
      <feFlood flood-opacity="0.412"/>
      <feComposite operator="in" in2="blur-3"/>
      <feComposite in="SourceGraphic"/>
    </filter>
  </defs>
  <g id="Group_146" data-name="Group 146" transform="translate(-10.197 -12.844)">
    <g id="Group_144" data-name="Group 144" transform="translate(15.993 15.333)">
      <path id="pin" d="M22.347,0S44.694,52.229,44.694,61.559,34.689,83.6,22.347,83.6,0,70.889,0,61.559,22.347,0,22.347,0Z" transform="translate(44.694 83.603) rotate(180)" fill="#651fff"/>
    </g>
    <g id="Group_145" data-name="Group 145" transform="translate(25.197 24.845)">
      <g transform="matrix(1, 0, 0, 1, -15, -12)" filter="url(#Path_71)">
        <path id="Path_71-2" data-name="Path 71" d="M15.291,936.173l21.171-7.863,5.8,7.863Z" transform="translate(-0.29 -893)" fill="#fff"/>
      </g>
      <g transform="matrix(1, 0, 0, 1, -15, -12)" filter="url(#Path_72)">
        <path id="Path_72-2" data-name="Path 72" d="M56.877,815.246l-5.521,10.327L73.56,838Z" transform="translate(-31.61 -794.81)" fill="#fff"/>
      </g>
      <g transform="matrix(1, 0, 0, 1, -15, -12)" filter="url(#Path_73)">
        <path id="Path_73-2" data-name="Path 73" d="M66.8,762.134l-5.412-11.018L51.355,769.88Z" transform="translate(-31.61 -739.12)" fill="#fff"/>
      </g>
    </g>
  </g>
</svg>
