<svg xmlns="http://www.w3.org/2000/svg" xmlns:xlink="http://www.w3.org/1999/xlink" width="1900" height="776" viewBox="0 0 1900 776" style="">
  <defs>
    <clipPath id="clip-Artboard_10">
      <path width="1900" height="776" d="M0 0 L1900 0 L1900 776 L0 776 Z" class="dFtVRGEM_0"></path>
    </clipPath>
  </defs>
  <g id="Artboard_10" data-name="Artboard – 10" clip-path="url(#clip-Artboard_10)">
    <g id="feedback" transform="translate(151.838 -4404.333)">
      <path id="bg" width="2041.621" height="776.334" transform="translate(67.702 4404)" fill="#651fff" d="M 388,0 L 1653.621,0 A 388,388,0,0,1,2041.621,388 L 2041.621,388.33399999999995 A 388,388,0,0,1,1653.621,776.334 L 388,776.334 A 388,388,0,0,1,0,388.33399999999995 L 0,388 A 388,388,0,0,1,388,0" class="dFtVRGEM_1"></path>
      <g id="Group_138" data-name="Group 138" transform="translate(-21.906 4431.126)">
        <g id="logo_stroke" data-name="logo stroke" transform="translate(9.751 19.542)">
          <path id="Path_1" data-name="Path 1" d="M15.291,1083.53l417.9-155.221,114.4,155.221Z" transform="translate(-15.291 -468.206)" fill="none" stroke="#f3f3f3" stroke-linecap="square" stroke-linejoin="round" stroke-width="1.5" class="dFtVRGEM_2"></path>
          <path id="Path_3" data-name="Path 3" d="M160.344,815.246,51.355,1019.1l438.3,245.27Z" transform="translate(42.291 -648.727)" fill="none" stroke="#f3f3f3" stroke-linecap="square" stroke-linejoin="round" stroke-width="1.5" class="dFtVRGEM_3"></path>
          <path id="Path_5" data-name="Path 5" d="M356.206,968.6,249.37,751.116,51.355,1121.494Z" transform="translate(42.291 -751.116)" fill="none" stroke="#f3f3f3" stroke-linecap="square" stroke-linejoin="round" stroke-width="1.5" class="dFtVRGEM_4"></path>
        </g>
        <g id="Group_126" data-name="Group 126" transform="translate(278.953 0)">
          <path id="Path_75" data-name="Path 75" d="M23.156,0A23.156,23.156,0,1,1,0,23.156,23.156,23.156,0,0,1,23.156,0Z" fill="#4800cf" class="dFtVRGEM_5"></path>
          <g id="Ellipse_53" data-name="Ellipse 53" transform="translate(6.344 7.049)" fill="none" stroke="#fff" stroke-width="1">
            <path stroke="none" d="M0,16.453A16.453,16.453 0,1,1 32.906,16.453A16.453,16.453 0,1,1 0,16.453" class="dFtVRGEM_6"></path>
            <path fill="none" d="M0.5,16.453A15.953,15.953 0,1,1 32.406,16.453A15.953,15.953 0,1,1 0.5,16.453" class="dFtVRGEM_7"></path>
          </g>
          <g id="Ellipse_63" data-name="Ellipse 63" transform="translate(12.689 13.394)" fill="none" stroke="#fff" stroke-width="1">
            <path stroke="none" d="M0,10.108A10.108,10.108 0,1,1 20.216,10.108A10.108,10.108 0,1,1 0,10.108" class="dFtVRGEM_8"></path>
            <path fill="none" d="M0.5,10.108A9.608,9.608 0,1,1 19.716,10.108A9.608,9.608 0,1,1 0.5,10.108" class="dFtVRGEM_9"></path>
          </g>
        </g>
        <g id="Group_117" data-name="Group 117" transform="translate(504.178 600.582)">
          <path id="Path_75-2" data-name="Path 75" d="M33.285,0A33.285,33.285,0,1,1,0,33.285,33.285,33.285,0,0,1,33.285,0Z" transform="translate(0 0)" fill="#4800cf" class="dFtVRGEM_10"></path>
          <path id="Path_76" data-name="Path 76" d="M23.146,0A23.146,23.146,0,1,1,0,23.146,23.146,23.146,0,0,1,23.146,0Z" transform="translate(10.139 10.139)" fill="#fff" class="dFtVRGEM_11"></path>
          <path id="Path_77" data-name="Path 77" d="M12.337,0A12.337,12.337,0,1,1,0,12.337,12.337,12.337,0,0,1,12.337,0Z" transform="translate(20.948 20.948)" fill="#4800cf" class="dFtVRGEM_12"></path>
        </g>
        <g id="Group_128" data-name="Group 128" transform="translate(0 619.898)">
          <path id="Ellipse_52" data-name="Ellipse 52" transform="translate(0 0)" fill="#4800cf" d="M0,12.933A12.933,12.933 0,1,1 25.866,12.933A12.933,12.933 0,1,1 0,12.933" class="dFtVRGEM_13"></path>
          <path id="Ellipse_53-2" data-name="Ellipse 53" transform="translate(6.674 6.674)" fill="#fff" d="M0,6.259A6.259,6.259 0,1,1 12.518,6.259A6.259,6.259 0,1,1 0,6.259" class="dFtVRGEM_14"></path>
        </g>
      </g>
    </g>
  </g>
<style data-made-with="vivus-instant">.dFtVRGEM_0{stroke-dasharray:5352 5354;stroke-dashoffset:5353;animation:dFtVRGEM_draw_0 3400ms linear 0ms infinite,dFtVRGEM_fade 3400ms linear 0ms infinite;}.dFtVRGEM_1{stroke-dasharray:4971 4973;stroke-dashoffset:4972;animation:dFtVRGEM_draw_1 3400ms linear 0ms infinite,dFtVRGEM_fade 3400ms linear 0ms infinite;}.dFtVRGEM_2{stroke-dasharray:1171 1173;stroke-dashoffset:1172;animation:dFtVRGEM_draw_2 3400ms linear 0ms infinite,dFtVRGEM_fade 3400ms linear 0ms infinite;}.dFtVRGEM_3{stroke-dasharray:1291 1293;stroke-dashoffset:1292;animation:dFtVRGEM_draw_3 3400ms linear 0ms infinite,dFtVRGEM_fade 3400ms linear 0ms infinite;}.dFtVRGEM_4{stroke-dasharray:1004 1006;stroke-dashoffset:1005;animation:dFtVRGEM_draw_4 3400ms linear 0ms infinite,dFtVRGEM_fade 3400ms linear 0ms infinite;}.dFtVRGEM_5{stroke-dasharray:146 148;stroke-dashoffset:147;animation:dFtVRGEM_draw_5 3400ms linear 0ms infinite,dFtVRGEM_fade 3400ms linear 0ms infinite;}.dFtVRGEM_6{stroke-dasharray:104 106;stroke-dashoffset:105;animation:dFtVRGEM_draw_6 3400ms linear 0ms infinite,dFtVRGEM_fade 3400ms linear 0ms infinite;}.dFtVRGEM_7{stroke-dasharray:101 103;stroke-dashoffset:102;animation:dFtVRGEM_draw_7 3400ms linear 0ms infinite,dFtVRGEM_fade 3400ms linear 0ms infinite;}.dFtVRGEM_8{stroke-dasharray:64 66;stroke-dashoffset:65;animation:dFtVRGEM_draw_8 3400ms linear 0ms infinite,dFtVRGEM_fade 3400ms linear 0ms infinite;}.dFtVRGEM_9{stroke-dasharray:61 63;stroke-dashoffset:62;animation:dFtVRGEM_draw_9 3400ms linear 0ms infinite,dFtVRGEM_fade 3400ms linear 0ms infinite;}.dFtVRGEM_10{stroke-dasharray:210 212;stroke-dashoffset:211;animation:dFtVRGEM_draw_10 3400ms linear 0ms infinite,dFtVRGEM_fade 3400ms linear 0ms infinite;}.dFtVRGEM_11{stroke-dasharray:146 148;stroke-dashoffset:147;animation:dFtVRGEM_draw_11 3400ms linear 0ms infinite,dFtVRGEM_fade 3400ms linear 0ms infinite;}.dFtVRGEM_12{stroke-dasharray:78 80;stroke-dashoffset:79;animation:dFtVRGEM_draw_12 3400ms linear 0ms infinite,dFtVRGEM_fade 3400ms linear 0ms infinite;}.dFtVRGEM_13{stroke-dasharray:82 84;stroke-dashoffset:83;animation:dFtVRGEM_draw_13 3400ms linear 0ms infinite,dFtVRGEM_fade 3400ms linear 0ms infinite;}.dFtVRGEM_14{stroke-dasharray:40 42;stroke-dashoffset:41;animation:dFtVRGEM_draw_14 3400ms linear 0ms infinite,dFtVRGEM_fade 3400ms linear 0ms infinite;}@keyframes dFtVRGEM_draw{100%{stroke-dashoffset:0;}}@keyframes dFtVRGEM_fade{0%{stroke-opacity:1;}88.23529411764706%{stroke-opacity:1;}100%{stroke-opacity:0;}}@keyframes dFtVRGEM_draw_0{0%{stroke-dashoffset: 5353}58.82352941176471%{ stroke-dashoffset: 0;}100%{ stroke-dashoffset: 0;}}@keyframes dFtVRGEM_draw_1{2.100840336134454%{stroke-dashoffset: 4972}60.92436974789916%{ stroke-dashoffset: 0;}100%{ stroke-dashoffset: 0;}}@keyframes dFtVRGEM_draw_2{4.201680672268908%{stroke-dashoffset: 1172}63.02521008403361%{ stroke-dashoffset: 0;}100%{ stroke-dashoffset: 0;}}@keyframes dFtVRGEM_draw_3{6.302521008403361%{stroke-dashoffset: 1292}65.12605042016807%{ stroke-dashoffset: 0;}100%{ stroke-dashoffset: 0;}}@keyframes dFtVRGEM_draw_4{8.403361344537815%{stroke-dashoffset: 1005}67.22689075630252%{ stroke-dashoffset: 0;}100%{ stroke-dashoffset: 0;}}@keyframes dFtVRGEM_draw_5{10.504201680672269%{stroke-dashoffset: 147}69.32773109243698%{ stroke-dashoffset: 0;}100%{ stroke-dashoffset: 0;}}@keyframes dFtVRGEM_draw_6{12.605042016806722%{stroke-dashoffset: 105}71.42857142857143%{ stroke-dashoffset: 0;}100%{ stroke-dashoffset: 0;}}@keyframes dFtVRGEM_draw_7{14.705882352941178%{stroke-dashoffset: 102}73.52941176470588%{ stroke-dashoffset: 0;}100%{ stroke-dashoffset: 0;}}@keyframes dFtVRGEM_draw_8{16.80672268907563%{stroke-dashoffset: 65}75.63025210084035%{ stroke-dashoffset: 0;}100%{ stroke-dashoffset: 0;}}@keyframes dFtVRGEM_draw_9{18.907563025210088%{stroke-dashoffset: 62}77.7310924369748%{ stroke-dashoffset: 0;}100%{ stroke-dashoffset: 0;}}@keyframes dFtVRGEM_draw_10{21.008403361344538%{stroke-dashoffset: 211}79.83193277310924%{ stroke-dashoffset: 0;}100%{ stroke-dashoffset: 0;}}@keyframes dFtVRGEM_draw_11{23.10924369747899%{stroke-dashoffset: 147}81.9327731092437%{ stroke-dashoffset: 0;}100%{ stroke-dashoffset: 0;}}@keyframes dFtVRGEM_draw_12{25.210084033613445%{stroke-dashoffset: 79}84.03361344537814%{ stroke-dashoffset: 0;}100%{ stroke-dashoffset: 0;}}@keyframes dFtVRGEM_draw_13{27.310924369747898%{stroke-dashoffset: 83}86.1344537815126%{ stroke-dashoffset: 0;}100%{ stroke-dashoffset: 0;}}@keyframes dFtVRGEM_draw_14{29.411764705882355%{stroke-dashoffset: 41}88.23529411764706%{ stroke-dashoffset: 0;}100%{ stroke-dashoffset: 0;}}</style></svg>
