<svg xmlns="http://www.w3.org/2000/svg" xmlns:xlink="http://www.w3.org/1999/xlink" width="425" height="324" viewBox="0 0 425 324">
  <defs>
    <clipPath id="clip-Artboard_2">
      <rect width="425" height="324"/>
    </clipPath>
  </defs>
  <g id="Artboard_2" data-name="Artboard – 2" clip-path="url(#clip-Artboard_2)">
    <g id="Nage" transform="translate(-24.133 -54.254)">
      <g id="Group_64" data-name="Group 64" transform="translate(55.606 75)">
        <g id="NegeImpact" transform="translate(0 0)">
          <g id="GSP" transform="translate(0 0)">
            <g id="GSOlogo">
              <g id="web">
                <path id="Path_76" data-name="Path 76" d="M6.645,0H307.664a6.645,6.645,0,0,1,6.645,6.645v245.2a6.645,6.645,0,0,1-6.645,6.645H6.645A6.645,6.645,0,0,1,0,251.841V6.645A6.645,6.645,0,0,1,6.645,0Z" transform="translate(0 20.456)" fill="#651fff" opacity="0.56"/>
                <g id="Rectangle_9" data-name="Rectangle 9" transform="translate(19.839)" fill="none" stroke="#fff" stroke-width="1">
                  <rect width="314.309" height="258.487" rx="12" stroke="none"/>
                  <rect x="0.5" y="0.5" width="313.309" height="257.487" rx="11.5" fill="none"/>
                </g>
                <path id="Rectangle_13" data-name="Rectangle 13" d="M11,0H303.309a11,11,0,0,1,11,11V57.65a0,0,0,0,1,0,0H0a0,0,0,0,1,0,0V11A11,11,0,0,1,11,0Z" transform="translate(55.171 11.158)" fill="#fff"/>
              </g>
              <g id="dashboard" transform="translate(80.804 105.254)">
                <g id="Subtraction_6" data-name="Subtraction 6" transform="translate(0 0)" fill="none">
                  <path d="M175.82,87.911h-42.2a45.713,45.713,0,1,0-91.427,0H0A87.51,87.51,0,0,1,15.014,38.759,88.164,88.164,0,0,1,53.692,6.909a87.793,87.793,0,0,1,83.369,8.1,88.164,88.164,0,0,1,31.85,38.678A87.358,87.358,0,0,1,175.82,87.91Z" stroke="none"/>
                  <path d="M 174.3072967529297 86.41082763671875 C 174.1197814941406 75.27476501464844 171.8421478271484 64.47096252441406 167.5300140380859 54.27599334716797 C 165.3649444580078 49.15624237060547 162.6846466064453 44.21806335449219 159.5634613037109 39.59851455688477 C 156.4727172851563 35.02312850952148 152.9226226806641 30.72017478942871 149.0119476318359 26.80928802490234 C 145.0982360839844 22.89658355712891 140.794921875 19.34613037109375 136.2214660644531 16.25656127929688 C 131.6013946533203 13.13533401489258 126.663444519043 10.45506191253662 121.5447387695313 8.290175437927246 C 110.8919906616211 3.784538984298706 99.57569122314453 1.499993443489075 87.91017150878906 1.499993443489075 C 76.24442291259766 1.499993443489075 64.92835235595703 3.784538984298706 54.27614593505859 8.290243148803711 C 49.15828323364258 10.45426654815674 44.22012329101563 13.1345157623291 39.59882736206055 16.25658416748047 C 35.02191925048828 19.34858512878418 30.71889686584473 22.89897155761719 26.80910110473633 26.80924415588379 C 22.90044212341309 30.71719741821289 19.35005569458008 35.02017593383789 16.25662422180176 39.59849166870117 C 13.13548851013184 44.21894836425781 10.45523834228516 49.15717697143555 8.290283203125 54.27610778808594 C 3.977908372879028 64.47159576416016 1.700157999992371 75.27450561523438 1.512630701065063 86.40999603271484 L 40.72034454345703 86.40999603271484 C 41.515625 61.06811141967773 62.37875747680664 40.69655990600586 87.91017150878906 40.69655990600586 C 100.5017852783203 40.69655990600586 112.3526458740234 45.61294937133789 121.2797164916992 54.54008483886719 C 129.8512878417969 63.1117057800293 134.7253265380859 74.37905120849609 135.10009765625 86.41002655029297 L 174.3072967529297 86.41082763671875 M 175.8199005126953 87.91085815429688 L 175.8191986083984 87.91085815429688 L 133.6234588623047 87.90999603271484 C 133.6230163574219 75.71855926513672 128.8628082275391 64.24453735351563 120.2190551757813 55.60074234008789 C 111.575309753418 46.95692443847656 100.1012802124023 42.19655990600586 87.91017150878906 42.19655990600586 C 62.70369338989258 42.19655990600586 42.19684982299805 62.70351791381836 42.19684982299805 87.90999603271484 L 1.080877154890914e-05 87.90999603271484 C 1.080877154890914e-05 76.0413818359375 2.324965238571167 64.52903747558594 6.908783435821533 53.69176483154297 C 9.111169815063477 48.48433303833008 11.83789730072021 43.46015167236328 15.01364707946777 38.75885772705078 C 18.1612606048584 34.10033416748047 21.77330589294434 29.7230167388916 25.74853324890137 25.74849319458008 C 29.72539710998535 21.7711296081543 34.10264587402344 18.15940284729004 38.75912475585938 15.01362991333008 C 43.46055603027344 11.83744812011719 48.48455810546875 9.110561370849609 53.69196701049805 6.908675193786621 C 64.52992248535156 2.324402570724487 76.04253387451172 -6.555730578838848e-06 87.91017150878906 -6.555730578838848e-06 C 99.77755737304688 -6.555730578838848e-06 111.290397644043 2.324402570724487 122.1290588378906 6.908675193786621 C 127.3366928100586 9.111152648925781 132.3606872558594 11.83806133270264 137.0611724853516 15.01362991333008 C 141.7140502929688 18.15685653686523 146.0915374755859 21.76856231689453 150.0724639892578 25.74849319458008 C 154.0504455566406 29.72667503356934 157.6620178222656 34.1040153503418 160.8064422607422 38.75885772705078 C 163.9824676513672 43.4595832824707 166.7091674804688 48.48374176025391 168.9115600585938 53.69176483154297 C 173.4955749511719 64.529541015625 175.8199005126953 76.04222106933594 175.8199005126953 87.90999603271484 L 175.8199005126953 87.91085815429688 Z" stroke="none" fill="#fff"/>
                </g>
                <path id="Subtraction_10" data-name="Subtraction 10" d="M22.917,61.061h0A45.161,45.161,0,0,0,0,43.446V0C.615.106,1.218.217,1.794.329A88.5,88.5,0,0,1,17.968,5.113a87.807,87.807,0,0,1,15.07,7.848A87.355,87.355,0,0,1,57.9,37.465l-34.983,23.6Z" transform="matrix(0.829, 0.559, -0.559, 0.829, 153.887, 19.725)" fill="#f3f3f3"/>
                <path id="Path_50" data-name="Path 50" d="M13.31,0S26.62,50.941,26.62,60.041,20.661,76.519,13.31,76.519,0,69.142,0,60.041,13.31,0,13.31,0Z" transform="translate(130.792 21.769) rotate(48)" fill="#00c9bc"/>
              </g>
              <g id="dot" transform="translate(63.26 34.404)">
                <circle id="Ellipse_45" data-name="Ellipse 45" cx="5.579" cy="5.579" r="5.579" transform="translate(0 0)" fill="#651fff"/>
                <circle id="Ellipse_46" data-name="Ellipse 46" cx="5.579" cy="5.579" r="5.579" transform="translate(18.596 0)" fill="#651fff"/>
                <circle id="Ellipse_47" data-name="Ellipse 47" cx="5.579" cy="5.579" r="5.579" transform="translate(37.192 0)" fill="#651fff"/>
              </g>
            </g>
          </g>
        </g>
      </g>
    </g>
  </g>
</svg>
